<?xml version="1.0" encoding="UTF-8" standalone="no"?>
<svg
   xmlns:dc="http://purl.org/dc/elements/1.1/"
   xmlns:cc="http://creativecommons.org/ns#"
   xmlns:rdf="http://www.w3.org/1999/02/22-rdf-syntax-ns#"
   xmlns:svg="http://www.w3.org/2000/svg"
   xmlns="http://www.w3.org/2000/svg"
   xmlns:sodipodi="http://sodipodi.sourceforge.net/DTD/sodipodi-0.dtd"
   xmlns:inkscape="http://www.inkscape.org/namespaces/inkscape"
   version="1.1"
   x="0px"
   y="0px"
   viewBox="0 0 90 90"
   enable-background="new 0 0 100 100"
   xml:space="preserve"
   id="svg2"
   inkscape:version="0.91 r13725"
   sodipodi:docname="noun_338407_cc.svg"
   width="90"
   height="90"><metadata
     id="metadata14"><rdf:RDF><cc:Work
         rdf:about=""><dc:format>image/svg+xml</dc:format><dc:type
           rdf:resource="http://purl.org/dc/dcmitype/StillImage" /><dc:title></dc:title></cc:Work></rdf:RDF></metadata><defs
     id="defs12" /><sodipodi:namedview
     pagecolor="#ffffff"
     bordercolor="#666666"
     borderopacity="1"
     objecttolerance="10"
     gridtolerance="10"
     guidetolerance="10"
     inkscape:pageopacity="0"
     inkscape:pageshadow="2"
     inkscape:window-width="2560"
     inkscape:window-height="1334"
     id="namedview10"
     showgrid="false"
     fit-margin-top="0"
     fit-margin-left="0"
     fit-margin-right="0"
     fit-margin-bottom="0"
     inkscape:zoom="1.888"
     inkscape:cx="46.059322"
     inkscape:cy="32.5"
     inkscape:window-x="0"
     inkscape:window-y="54"
     inkscape:window-maximized="1"
     inkscape:current-layer="svg2" /><path
     d="M 80.569,0 9.431,0 C 4.221,0 0,4.221 0,9.431 L 0,80.568 C 0,85.756 4.221,90 9.431,90 l 71.137,0 C 85.779,90 90,85.756 90,80.569 L 90,9.431 C 90,4.221 85.779,0 80.569,0 Z M 65.761,48.761 c -0.873,0.943 -2.334,1.391 -4.386,1.368 l -32.774,0 c -2.051,0 -3.513,-0.472 -4.386,-1.415 -0.872,-0.92 -1.297,-2.169 -1.297,-3.702 0,-1.533 0.424,-2.782 1.297,-3.725 0.873,-0.967 2.334,-1.438 4.386,-1.438 l 32.774,0 c 2.051,0 3.513,0.471 4.386,1.438 0.872,0.943 1.297,2.193 1.297,3.725 0,1.532 -0.424,2.782 -1.297,3.749 z"
     id="path4"
     inkscape:connector-curvature="0" /></svg>